<svg xmlns="http://www.w3.org/2000/svg" viewBox="0 0 32 32" fill="none">
  <rect width="32" height="32" rx="8" fill="#4f46e5"/>
  <path
    d="M10 14.5c0-3.2 2.4-5.5 6-5.5s6 2.3 6 5.5c0 2.1-.9 3.8-2.3 4.8V22a1 1 0 0 1-1 1h-5.4a1 1 0 0 1-1-1v-2.7c-1.4-1-2.3-2.7-2.3-4.8Z"
    fill="#fff"
    opacity="0.95"
  />
  <circle cx="13" cy="14" r="1.1" fill="#4f46e5"/>
  <circle cx="19" cy="14" r="1.1" fill="#4f46e5"/>
  <path
    d="M14.5 16.8c.6.5 1.4.8 2.5.8s1.9-.3 2.5-.8"
    stroke="#4f46e5"
    stroke-width="1"
    stroke-linecap="round"
  />
  <circle cx="22.5" cy="11.5" r="2" fill="#34d399"/>
  <path d="M22.5 10v3M21 11.5h3" stroke="#fff" stroke-width="0.9" stroke-linecap="round"/>
</svg>
